# xmcd
#
# Track frame offsets:
#	150
#	15647
#	34108
#	53451
#	70131
#	85255
#	106784
#	128778
#	153473
#	176387
#	195435
#	212264
#	260503
#
# Disc length: 4440 seconds
#
# Revision: 0
# Processed by: cddbd v1.5.1PL2 Copyright (c) Steve Scherf et al.
# Submitted via: EasyCDDAExtractor 4.6.9.1
#
DISCID=9b11560d
DTITLE=Les Gauff' au Suc' - Vamos à ... Las-Végus
DYEAR=2003
DGENRE=Country
TTITLE0=Millionnaire
TTITLE1=Régime
TTITLE2=J'm'emmerde
TTITLE3=Ah les bouchons !
TTITLE4=Les blondes
TTITLE5=Odeurs et déceptions
TTITLE6=La meraveck
TTITLE7=Zoo Ligans
TTITLE8=Thérèse
TTITLE9=Oestrogène dominical
TTITLE10=Staraca
TTITLE11=Ucontand
TTITLE12=Data
EXTD=
EXTT0=
EXTT1=
EXTT2=
EXTT3=
EXTT4=
EXTT5=
EXTT6=
EXTT7=
EXTT8=
EXTT9=
EXTT10=
EXTT11=
EXTT12=
PLAYORDER=
